<svg xmlns="http://www.w3.org/2000/svg" xmlns:xlink="http://www.w3.org/1999/xlink" width="300" zoomAndPan="magnify" viewBox="0 0 224.87999 75.749997" height="101" preserveAspectRatio="xMidYMid meet" version="1.0"><defs><filter x="0%" y="0%" width="100%" height="100%" id="ea8880216e"><feColorMatrix values="0 0 0 0 1 0 0 0 0 1 0 0 0 0 1 0 0 0 1 0" color-interpolation-filters="sRGB"/></filter><g/><clipPath id="ba3c337215"><path d="M 0.308594 0 L 224.449219 0 L 224.449219 75.5 L 0.308594 75.5 Z M 0.308594 0 " clip-rule="nonzero"/></clipPath><clipPath id="1455aa1268"><path d="M 0.359375 4 L 7 4 L 7 11 L 0.359375 11 Z M 0.359375 4 " clip-rule="nonzero"/></clipPath><clipPath id="68af4e39f8"><path d="M 53 4 L 60.160156 4 L 60.160156 11 L 53 11 Z M 53 4 " clip-rule="nonzero"/></clipPath><clipPath id="bc9e2c23c1"><rect x="0" width="61" y="0" height="15"/></clipPath><clipPath id="1384a4043b"><rect x="0" width="23" y="0" height="6"/></clipPath><mask id="c634a2baeb"><g filter="url(#ea8880216e)"><rect x="-22.487999" width="269.855988" fill="#000000" y="-7.575" height="90.899996" fill-opacity="0.65"/></g></mask><clipPath id="19e743d254"><path d="M 0.46875 0.183594 L 37.308594 0.183594 L 37.308594 3.53125 L 0.46875 3.53125 Z M 0.46875 0.183594 " clip-rule="nonzero"/></clipPath><clipPath id="eff3f095ad"><path d="M 0.46875 0.183594 L 3 0.183594 L 3 3 L 0.46875 3 Z M 0.46875 0.183594 " clip-rule="nonzero"/></clipPath><clipPath id="4b5aca6b48"><path d="M 2 0.183594 L 4 0.183594 L 4 3 L 2 3 Z M 2 0.183594 " clip-rule="nonzero"/></clipPath><clipPath id="5e8b33fd91"><path d="M 4 0.183594 L 6 0.183594 L 6 3 L 4 3 Z M 4 0.183594 " clip-rule="nonzero"/></clipPath><clipPath id="65aaa1798a"><path d="M 5 0.183594 L 7 0.183594 L 7 3 L 5 3 Z M 5 0.183594 " clip-rule="nonzero"/></clipPath><clipPath id="630dbddfa6"><path d="M 6 0.183594 L 9 0.183594 L 9 3 L 6 3 Z M 6 0.183594 " clip-rule="nonzero"/></clipPath><clipPath id="7fbe2d3dfe"><path d="M 8 0.183594 L 11 0.183594 L 11 3 L 8 3 Z M 8 0.183594 " clip-rule="nonzero"/></clipPath><clipPath id="8ebd46739a"><path d="M 10 0.183594 L 12 0.183594 L 12 3 L 10 3 Z M 10 0.183594 " clip-rule="nonzero"/></clipPath><clipPath id="a74c391714"><path d="M 12 0.183594 L 14 0.183594 L 14 3 L 12 3 Z M 12 0.183594 " clip-rule="nonzero"/></clipPath><clipPath id="c3fccc0e05"><path d="M 14 0.183594 L 17 0.183594 L 17 3 L 14 3 Z M 14 0.183594 " clip-rule="nonzero"/></clipPath><clipPath id="bd150160f2"><path d="M 17 0.183594 L 20 0.183594 L 20 3 L 17 3 Z M 17 0.183594 " clip-rule="nonzero"/></clipPath><clipPath id="9579e979f3"><path d="M 19 0.183594 L 22 0.183594 L 22 3 L 19 3 Z M 19 0.183594 " clip-rule="nonzero"/></clipPath><clipPath id="0b1273fc7d"><path d="M 21 0.183594 L 23 0.183594 L 23 3 L 21 3 Z M 21 0.183594 " clip-rule="nonzero"/></clipPath><clipPath id="dadfa828da"><path d="M 23 0.183594 L 25 0.183594 L 25 3 L 23 3 Z M 23 0.183594 " clip-rule="nonzero"/></clipPath><clipPath id="98451eb9d3"><path d="M 25 0.183594 L 27 0.183594 L 27 3 L 25 3 Z M 25 0.183594 " clip-rule="nonzero"/></clipPath><clipPath id="b5b91e62dc"><path d="M 27 0.183594 L 29 0.183594 L 29 3 L 27 3 Z M 27 0.183594 " clip-rule="nonzero"/></clipPath><clipPath id="1e95e1accd"><path d="M 29 0.183594 L 32 0.183594 L 32 3 L 29 3 Z M 29 0.183594 " clip-rule="nonzero"/></clipPath><clipPath id="0cdbc71050"><path d="M 31 0.183594 L 34 0.183594 L 34 3 L 31 3 Z M 31 0.183594 " clip-rule="nonzero"/></clipPath><clipPath id="375533f7d9"><path d="M 33 0.183594 L 36 0.183594 L 36 3 L 33 3 Z M 33 0.183594 " clip-rule="nonzero"/></clipPath><clipPath id="c443aecb01"><path d="M 35 0.183594 L 37.308594 0.183594 L 37.308594 3 L 35 3 Z M 35 0.183594 " clip-rule="nonzero"/></clipPath><clipPath id="fae8f50114"><rect x="0" width="38" y="0" height="4"/></clipPath><clipPath id="56f1d6ab4e"><rect x="0" width="38" y="0" height="4"/></clipPath></defs><g clip-path="url(#ba3c337215)"><path fill="#ffffff" d="M 0.308594 0 L 224.570312 0 L 224.570312 75.5 L 0.308594 75.5 Z M 0.308594 0 " fill-opacity="1" fill-rule="nonzero"/><path fill="#ffffff" d="M 0.308594 0 L 224.570312 0 L 224.570312 75.5 L 0.308594 75.5 Z M 0.308594 0 " fill-opacity="1" fill-rule="nonzero"/></g><g transform="matrix(1, 0, 0, 1, 82, 31)"><g clip-path="url(#bc9e2c23c1)"><g clip-path="url(#1455aa1268)"><g fill="#374b73" fill-opacity="1"><g transform="translate(0.770747, 10.697642)"><g><path d="M 0.21875 0 L 0.21875 -0.09375 L 0.40625 -0.171875 C 0.539062 -0.222656 0.632812 -0.289062 0.6875 -0.375 C 0.738281 -0.457031 0.765625 -0.566406 0.765625 -0.703125 L 0.765625 -6 C 0.765625 -6.144531 0.738281 -6.253906 0.6875 -6.328125 C 0.632812 -6.410156 0.539062 -6.476562 0.40625 -6.53125 L 0.21875 -6.59375 L 0.21875 -6.703125 L 3.140625 -6.703125 C 3.960938 -6.703125 4.554688 -6.550781 4.921875 -6.25 C 5.285156 -5.945312 5.46875 -5.566406 5.46875 -5.109375 C 5.46875 -4.765625 5.332031 -4.453125 5.0625 -4.171875 C 4.800781 -3.890625 4.347656 -3.691406 3.703125 -3.578125 C 4.441406 -3.492188 4.984375 -3.296875 5.328125 -2.984375 C 5.671875 -2.679688 5.84375 -2.3125 5.84375 -1.875 C 5.84375 -1.65625 5.796875 -1.4375 5.703125 -1.21875 C 5.609375 -1 5.445312 -0.796875 5.21875 -0.609375 C 5 -0.421875 4.691406 -0.269531 4.296875 -0.15625 C 3.898438 -0.0507812 3.398438 0 2.796875 0 Z M 2.265625 -3.578125 L 2.703125 -3.578125 C 3.148438 -3.578125 3.472656 -3.679688 3.671875 -3.890625 C 3.878906 -4.109375 3.984375 -4.476562 3.984375 -5 C 3.984375 -5.539062 3.890625 -5.925781 3.703125 -6.15625 C 3.523438 -6.382812 3.226562 -6.5 2.8125 -6.5 L 2.265625 -6.5 Z M 2.265625 -0.203125 L 2.765625 -0.203125 C 3.273438 -0.203125 3.65625 -0.335938 3.90625 -0.609375 C 4.15625 -0.878906 4.28125 -1.300781 4.28125 -1.875 C 4.28125 -2.414062 4.160156 -2.800781 3.921875 -3.03125 C 3.679688 -3.257812 3.289062 -3.375 2.75 -3.375 L 2.265625 -3.375 Z M 2.265625 -0.203125 "/></g></g></g></g><g fill="#374b73" fill-opacity="1"><g transform="translate(6.841466, 10.697642)"><g><path d="M 0.21875 0 L 0.21875 -0.09375 L 0.453125 -0.1875 C 0.566406 -0.238281 0.644531 -0.300781 0.6875 -0.375 C 0.738281 -0.457031 0.765625 -0.566406 0.765625 -0.703125 L 0.765625 -6 C 0.765625 -6.132812 0.742188 -6.238281 0.703125 -6.3125 C 0.671875 -6.394531 0.585938 -6.460938 0.453125 -6.515625 L 0.21875 -6.59375 L 0.21875 -6.703125 L 5.09375 -6.703125 L 5.15625 -5.140625 L 5.046875 -5.140625 L 4.609375 -6.09375 C 4.546875 -6.21875 4.476562 -6.316406 4.40625 -6.390625 C 4.34375 -6.460938 4.242188 -6.5 4.109375 -6.5 L 2.28125 -6.5 L 2.28125 -3.5625 L 3.375 -3.5625 C 3.507812 -3.5625 3.609375 -3.597656 3.671875 -3.671875 C 3.742188 -3.742188 3.8125 -3.835938 3.875 -3.953125 L 4.078125 -4.359375 L 4.171875 -4.359375 L 4.171875 -2.53125 L 4.078125 -2.53125 L 3.875 -2.96875 C 3.8125 -3.082031 3.742188 -3.175781 3.671875 -3.25 C 3.609375 -3.320312 3.507812 -3.359375 3.375 -3.359375 L 2.28125 -3.359375 L 2.28125 -0.203125 L 4.34375 -0.203125 C 4.476562 -0.203125 4.582031 -0.238281 4.65625 -0.3125 C 4.726562 -0.382812 4.785156 -0.484375 4.828125 -0.609375 L 5.25 -1.5625 L 5.359375 -1.5625 L 5.296875 0 Z M 0.21875 0 "/></g></g></g><g fill="#374b73" fill-opacity="1"><g transform="translate(12.475659, 10.697642)"><g><path d="M 0.078125 0 L 0.078125 -0.09375 L 0.328125 -0.1875 C 0.460938 -0.25 0.566406 -0.316406 0.640625 -0.390625 C 0.722656 -0.460938 0.785156 -0.570312 0.828125 -0.71875 L 2.921875 -6.71875 L 3.78125 -6.71875 L 5.84375 -0.6875 C 5.90625 -0.53125 5.96875 -0.410156 6.03125 -0.328125 C 6.101562 -0.253906 6.207031 -0.191406 6.34375 -0.140625 L 6.46875 -0.09375 L 6.46875 0 L 3.890625 0 L 3.890625 -0.09375 L 4.046875 -0.15625 C 4.179688 -0.207031 4.265625 -0.28125 4.296875 -0.375 C 4.328125 -0.476562 4.320312 -0.597656 4.28125 -0.734375 L 3.8125 -2.1875 L 1.546875 -2.1875 L 1.0625 -0.765625 C 1.019531 -0.609375 1.003906 -0.488281 1.015625 -0.40625 C 1.035156 -0.320312 1.117188 -0.25 1.265625 -0.1875 L 1.484375 -0.09375 L 1.484375 0 Z M 1.625 -2.390625 L 3.75 -2.390625 L 2.71875 -5.5625 Z M 1.625 -2.390625 "/></g></g></g><g fill="#374b73" fill-opacity="1"><g transform="translate(19.074234, 10.697642)"><g><path d="M 0.21875 0 L 0.21875 -0.09375 L 0.4375 -0.1875 C 0.65625 -0.269531 0.765625 -0.441406 0.765625 -0.703125 L 0.765625 -6 C 0.765625 -6.269531 0.65625 -6.441406 0.4375 -6.515625 L 0.21875 -6.59375 L 0.21875 -6.703125 L 2.90625 -6.703125 C 3.625 -6.703125 4.238281 -6.566406 4.75 -6.296875 C 5.269531 -6.035156 5.671875 -5.65625 5.953125 -5.15625 C 6.234375 -4.65625 6.375 -4.054688 6.375 -3.359375 C 6.375 -2.648438 6.222656 -2.046875 5.921875 -1.546875 C 5.617188 -1.046875 5.191406 -0.660156 4.640625 -0.390625 C 4.097656 -0.128906 3.457031 0 2.71875 0 Z M 2.28125 -0.203125 L 2.71875 -0.203125 C 3.207031 -0.203125 3.597656 -0.296875 3.890625 -0.484375 C 4.191406 -0.679688 4.410156 -1.007812 4.546875 -1.46875 C 4.691406 -1.925781 4.765625 -2.550781 4.765625 -3.34375 C 4.765625 -4.144531 4.691406 -4.773438 4.546875 -5.234375 C 4.410156 -5.691406 4.195312 -6.015625 3.90625 -6.203125 C 3.613281 -6.398438 3.234375 -6.5 2.765625 -6.5 L 2.28125 -6.5 Z M 2.28125 -0.203125 "/></g></g></g><g fill="#374b73" fill-opacity="1"><g transform="translate(25.652677, 10.697642)"><g><path d="M 2.40625 0.1875 C 2.03125 0.1875 1.648438 0.140625 1.265625 0.046875 C 0.878906 -0.046875 0.554688 -0.164062 0.296875 -0.3125 L 0.359375 -1.703125 L 0.453125 -1.703125 L 0.765625 -1.03125 C 0.859375 -0.84375 0.957031 -0.675781 1.0625 -0.53125 C 1.175781 -0.382812 1.328125 -0.269531 1.515625 -0.1875 C 1.648438 -0.125 1.78125 -0.078125 1.90625 -0.046875 C 2.039062 -0.0234375 2.179688 -0.015625 2.328125 -0.015625 C 2.742188 -0.015625 3.070312 -0.125 3.3125 -0.34375 C 3.550781 -0.570312 3.671875 -0.863281 3.671875 -1.21875 C 3.671875 -1.550781 3.585938 -1.8125 3.421875 -2 C 3.265625 -2.1875 3.007812 -2.363281 2.65625 -2.53125 L 2.234375 -2.71875 C 1.648438 -2.976562 1.191406 -3.273438 0.859375 -3.609375 C 0.535156 -3.941406 0.375 -4.390625 0.375 -4.953125 C 0.375 -5.347656 0.476562 -5.691406 0.6875 -5.984375 C 0.894531 -6.273438 1.179688 -6.5 1.546875 -6.65625 C 1.921875 -6.8125 2.351562 -6.890625 2.84375 -6.890625 C 3.195312 -6.890625 3.535156 -6.835938 3.859375 -6.734375 C 4.179688 -6.640625 4.460938 -6.515625 4.703125 -6.359375 L 4.640625 -5.140625 L 4.546875 -5.140625 L 4.125 -5.90625 C 4.007812 -6.132812 3.894531 -6.296875 3.78125 -6.390625 C 3.664062 -6.492188 3.53125 -6.566406 3.375 -6.609375 C 3.289062 -6.640625 3.210938 -6.660156 3.140625 -6.671875 C 3.066406 -6.679688 2.972656 -6.6875 2.859375 -6.6875 C 2.503906 -6.6875 2.207031 -6.582031 1.96875 -6.375 C 1.738281 -6.175781 1.625 -5.910156 1.625 -5.578125 C 1.625 -5.234375 1.710938 -4.957031 1.890625 -4.75 C 2.078125 -4.539062 2.347656 -4.351562 2.703125 -4.1875 L 3.171875 -3.984375 C 3.816406 -3.703125 4.28125 -3.398438 4.5625 -3.078125 C 4.851562 -2.753906 5 -2.34375 5 -1.84375 C 5 -1.238281 4.769531 -0.75 4.3125 -0.375 C 3.863281 0 3.226562 0.1875 2.40625 0.1875 Z M 2.40625 0.1875 "/></g></g></g><g fill="#374b73" fill-opacity="1"><g transform="translate(30.941676, 10.697642)"><g><path d="M 2.390625 0.03125 L 0.59375 -6.015625 C 0.550781 -6.171875 0.5 -6.28125 0.4375 -6.34375 C 0.382812 -6.414062 0.289062 -6.484375 0.15625 -6.546875 L 0.046875 -6.59375 L 0.046875 -6.703125 L 2.734375 -6.703125 L 2.734375 -6.59375 L 2.515625 -6.515625 C 2.359375 -6.453125 2.253906 -6.378906 2.203125 -6.296875 C 2.148438 -6.210938 2.144531 -6.09375 2.1875 -5.9375 L 3.296875 -1.703125 L 4.5 -5.25 L 4.265625 -5.96875 C 4.210938 -6.113281 4.164062 -6.222656 4.125 -6.296875 C 4.09375 -6.367188 4.03125 -6.429688 3.9375 -6.484375 L 3.703125 -6.59375 L 3.703125 -6.703125 L 6.25 -6.703125 L 6.25 -6.59375 L 5.9375 -6.484375 C 5.800781 -6.429688 5.722656 -6.359375 5.703125 -6.265625 C 5.691406 -6.179688 5.710938 -6.066406 5.765625 -5.921875 L 7.046875 -1.609375 L 8.265625 -5.84375 C 8.316406 -6 8.332031 -6.140625 8.3125 -6.265625 C 8.300781 -6.390625 8.21875 -6.476562 8.0625 -6.53125 L 7.84375 -6.59375 L 7.84375 -6.703125 L 9.265625 -6.703125 L 9.265625 -6.59375 L 9 -6.5 C 8.863281 -6.445312 8.765625 -6.367188 8.703125 -6.265625 C 8.648438 -6.171875 8.609375 -6.050781 8.578125 -5.90625 L 6.890625 0.03125 L 6.1875 0.03125 L 4.65625 -4.75 L 3.09375 0.03125 Z M 2.390625 0.03125 "/></g></g></g><g fill="#374b73" fill-opacity="1"><g transform="translate(40.291443, 10.697642)"><g><path d="M 3.40625 0.1875 C 2.988281 0.1875 2.585938 0.113281 2.203125 -0.03125 C 1.828125 -0.1875 1.488281 -0.410156 1.1875 -0.703125 C 0.882812 -0.992188 0.644531 -1.359375 0.46875 -1.796875 C 0.289062 -2.242188 0.203125 -2.757812 0.203125 -3.34375 C 0.203125 -3.925781 0.289062 -4.4375 0.46875 -4.875 C 0.644531 -5.320312 0.882812 -5.691406 1.1875 -5.984375 C 1.488281 -6.273438 1.832031 -6.5 2.21875 -6.65625 C 2.601562 -6.8125 3 -6.890625 3.40625 -6.890625 C 3.8125 -6.890625 4.207031 -6.816406 4.59375 -6.671875 C 4.976562 -6.523438 5.320312 -6.300781 5.625 -6 C 5.925781 -5.707031 6.160156 -5.335938 6.328125 -4.890625 C 6.503906 -4.453125 6.59375 -3.9375 6.59375 -3.34375 C 6.59375 -2.769531 6.503906 -2.257812 6.328125 -1.8125 C 6.160156 -1.375 5.925781 -1.007812 5.625 -0.71875 C 5.320312 -0.425781 4.976562 -0.203125 4.59375 -0.046875 C 4.207031 0.109375 3.8125 0.1875 3.40625 0.1875 Z M 3.40625 -0.03125 C 3.769531 -0.03125 4.066406 -0.128906 4.296875 -0.328125 C 4.535156 -0.523438 4.707031 -0.863281 4.8125 -1.34375 C 4.914062 -1.832031 4.96875 -2.5 4.96875 -3.34375 C 4.96875 -4.195312 4.914062 -4.863281 4.8125 -5.34375 C 4.707031 -5.832031 4.535156 -6.175781 4.296875 -6.375 C 4.066406 -6.582031 3.769531 -6.6875 3.40625 -6.6875 C 3.039062 -6.6875 2.738281 -6.582031 2.5 -6.375 C 2.269531 -6.175781 2.101562 -5.832031 2 -5.34375 C 1.894531 -4.863281 1.84375 -4.195312 1.84375 -3.34375 C 1.84375 -2.5 1.894531 -1.832031 2 -1.34375 C 2.101562 -0.863281 2.269531 -0.523438 2.5 -0.328125 C 2.738281 -0.128906 3.039062 -0.03125 3.40625 -0.03125 Z M 3.40625 -0.03125 "/></g></g></g><g fill="#374b73" fill-opacity="1"><g transform="translate(47.093028, 10.697642)"><g><path d="M 0.21875 0 L 0.21875 -0.09375 L 0.4375 -0.171875 C 0.570312 -0.222656 0.660156 -0.285156 0.703125 -0.359375 C 0.742188 -0.441406 0.765625 -0.550781 0.765625 -0.6875 L 0.765625 -6 C 0.765625 -6.132812 0.742188 -6.238281 0.703125 -6.3125 C 0.671875 -6.394531 0.585938 -6.460938 0.453125 -6.515625 L 0.21875 -6.59375 L 0.21875 -6.703125 L 3.125 -6.703125 C 3.925781 -6.703125 4.539062 -6.550781 4.96875 -6.25 C 5.394531 -5.945312 5.609375 -5.53125 5.609375 -5 C 5.609375 -4.695312 5.492188 -4.394531 5.265625 -4.09375 C 5.046875 -3.800781 4.695312 -3.570312 4.21875 -3.40625 L 5.625 -0.609375 C 5.6875 -0.492188 5.753906 -0.398438 5.828125 -0.328125 C 5.910156 -0.253906 6.015625 -0.191406 6.140625 -0.140625 L 6.28125 -0.09375 L 6.28125 0 L 4.453125 0 L 2.953125 -3.203125 L 2.265625 -3.203125 L 2.265625 -0.6875 C 2.265625 -0.5625 2.285156 -0.457031 2.328125 -0.375 C 2.367188 -0.289062 2.453125 -0.226562 2.578125 -0.1875 L 2.828125 -0.09375 L 2.828125 0 Z M 2.265625 -3.40625 L 2.75 -3.40625 C 3.238281 -3.40625 3.59375 -3.535156 3.8125 -3.796875 C 4.03125 -4.054688 4.140625 -4.441406 4.140625 -4.953125 C 4.140625 -5.472656 4.035156 -5.859375 3.828125 -6.109375 C 3.628906 -6.367188 3.285156 -6.5 2.796875 -6.5 L 2.265625 -6.5 Z M 2.265625 -3.40625 "/></g></g></g><g clip-path="url(#68af4e39f8)"><g fill="#374b73" fill-opacity="1"><g transform="translate(53.468256, 10.697642)"><g><path d="M 0.21875 0 L 0.21875 -0.09375 L 0.4375 -0.1875 C 0.570312 -0.226562 0.660156 -0.289062 0.703125 -0.375 C 0.742188 -0.457031 0.765625 -0.5625 0.765625 -0.6875 L 0.765625 -6 C 0.765625 -6.132812 0.742188 -6.242188 0.703125 -6.328125 C 0.660156 -6.410156 0.570312 -6.472656 0.4375 -6.515625 L 0.21875 -6.59375 L 0.21875 -6.703125 L 2.75 -6.703125 L 2.75 -6.59375 L 2.53125 -6.515625 C 2.414062 -6.472656 2.335938 -6.410156 2.296875 -6.328125 C 2.253906 -6.242188 2.234375 -6.128906 2.234375 -5.984375 L 2.234375 -0.6875 C 2.234375 -0.550781 2.253906 -0.441406 2.296875 -0.359375 C 2.335938 -0.285156 2.425781 -0.226562 2.5625 -0.1875 L 2.75 -0.09375 L 2.75 0 Z M 3.96875 0 L 3.96875 -0.09375 L 4.109375 -0.140625 C 4.242188 -0.179688 4.3125 -0.25 4.3125 -0.34375 C 4.320312 -0.4375 4.28125 -0.546875 4.1875 -0.671875 L 2.25 -3.4375 L 4.8125 -6.0625 C 4.90625 -6.15625 4.957031 -6.242188 4.96875 -6.328125 C 4.976562 -6.421875 4.910156 -6.492188 4.765625 -6.546875 L 4.59375 -6.59375 L 4.59375 -6.703125 L 6.078125 -6.703125 L 6.078125 -6.59375 L 5.8125 -6.515625 C 5.664062 -6.472656 5.546875 -6.414062 5.453125 -6.34375 C 5.367188 -6.28125 5.269531 -6.191406 5.15625 -6.078125 L 3.34375 -4.21875 L 5.734375 -0.734375 C 5.828125 -0.578125 5.921875 -0.453125 6.015625 -0.359375 C 6.109375 -0.265625 6.238281 -0.191406 6.40625 -0.140625 L 6.546875 -0.09375 L 6.546875 0 Z M 3.96875 0 "/></g></g></g></g></g></g><g transform="matrix(1, 0, 0, 1, 128, 44)"><g clip-path="url(#1384a4043b)"><g fill="#374b73" fill-opacity="1"><g transform="translate(0.913891, 4.09688)"><g><path d="M 1.234375 0.046875 C 1.023438 0.046875 0.84375 0.015625 0.6875 -0.046875 C 0.539062 -0.117188 0.425781 -0.21875 0.34375 -0.34375 C 0.257812 -0.46875 0.210938 -0.613281 0.203125 -0.78125 L 0.5625 -0.78125 C 0.570312 -0.664062 0.609375 -0.566406 0.671875 -0.484375 C 0.734375 -0.410156 0.8125 -0.351562 0.90625 -0.3125 C 1.007812 -0.28125 1.117188 -0.265625 1.234375 -0.265625 C 1.367188 -0.265625 1.484375 -0.285156 1.578125 -0.328125 C 1.679688 -0.367188 1.757812 -0.425781 1.8125 -0.5 C 1.875 -0.582031 1.90625 -0.671875 1.90625 -0.765625 C 1.90625 -0.859375 1.878906 -0.929688 1.828125 -0.984375 C 1.785156 -1.046875 1.722656 -1.09375 1.640625 -1.125 C 1.554688 -1.164062 1.460938 -1.203125 1.359375 -1.234375 L 1.015625 -1.328125 C 0.773438 -1.390625 0.59375 -1.476562 0.46875 -1.59375 C 0.34375 -1.71875 0.28125 -1.875 0.28125 -2.0625 C 0.28125 -2.21875 0.320312 -2.351562 0.40625 -2.46875 C 0.488281 -2.59375 0.601562 -2.6875 0.75 -2.75 C 0.894531 -2.820312 1.0625 -2.859375 1.25 -2.859375 C 1.4375 -2.859375 1.597656 -2.820312 1.734375 -2.75 C 1.878906 -2.6875 1.992188 -2.597656 2.078125 -2.484375 C 2.160156 -2.367188 2.207031 -2.234375 2.21875 -2.078125 L 1.859375 -2.078125 C 1.847656 -2.222656 1.785156 -2.335938 1.671875 -2.421875 C 1.554688 -2.503906 1.410156 -2.546875 1.234375 -2.546875 C 1.109375 -2.546875 1 -2.523438 0.90625 -2.484375 C 0.820312 -2.441406 0.753906 -2.382812 0.703125 -2.3125 C 0.648438 -2.25 0.625 -2.171875 0.625 -2.078125 C 0.625 -1.984375 0.648438 -1.90625 0.703125 -1.84375 C 0.765625 -1.789062 0.835938 -1.742188 0.921875 -1.703125 C 1.003906 -1.671875 1.085938 -1.644531 1.171875 -1.625 L 1.453125 -1.546875 C 1.546875 -1.523438 1.640625 -1.492188 1.734375 -1.453125 C 1.828125 -1.410156 1.910156 -1.359375 1.984375 -1.296875 C 2.066406 -1.242188 2.132812 -1.171875 2.1875 -1.078125 C 2.238281 -0.992188 2.265625 -0.890625 2.265625 -0.765625 C 2.265625 -0.609375 2.222656 -0.46875 2.140625 -0.34375 C 2.054688 -0.226562 1.9375 -0.132812 1.78125 -0.0625 C 1.632812 0.0078125 1.453125 0.046875 1.234375 0.046875 Z M 1.234375 0.046875 "/></g></g></g><g fill="#374b73" fill-opacity="1"><g transform="translate(4.538257, 4.09688)"><g><path d="M 0.171875 -2.5 L 0.171875 -2.8125 L 2.3125 -2.8125 L 2.3125 -2.5 L 1.421875 -2.5 L 1.421875 0 L 1.0625 0 L 1.0625 -2.5 Z M 0.171875 -2.5 "/></g></g></g><g fill="#374b73" fill-opacity="1"><g transform="translate(8.170187, 4.09688)"><g><path d="M 1.421875 0.046875 C 1.203125 0.046875 1.007812 0.00390625 0.84375 -0.078125 C 0.675781 -0.171875 0.546875 -0.289062 0.453125 -0.4375 C 0.367188 -0.59375 0.328125 -0.765625 0.328125 -0.953125 L 0.328125 -2.8125 L 0.671875 -2.8125 L 0.671875 -0.984375 C 0.671875 -0.847656 0.703125 -0.726562 0.765625 -0.625 C 0.828125 -0.519531 0.910156 -0.4375 1.015625 -0.375 C 1.128906 -0.3125 1.265625 -0.28125 1.421875 -0.28125 C 1.578125 -0.28125 1.707031 -0.3125 1.8125 -0.375 C 1.925781 -0.4375 2.015625 -0.519531 2.078125 -0.625 C 2.140625 -0.726562 2.171875 -0.847656 2.171875 -0.984375 L 2.171875 -2.8125 L 2.53125 -2.8125 L 2.53125 -0.953125 C 2.53125 -0.765625 2.484375 -0.59375 2.390625 -0.4375 C 2.296875 -0.289062 2.164062 -0.171875 2 -0.078125 C 1.832031 0.00390625 1.640625 0.046875 1.421875 0.046875 Z M 1.421875 0.046875 "/></g></g></g><g fill="#374b73" fill-opacity="1"><g transform="translate(12.178406, 4.09688)"><g><path d="M 1.203125 0 L 0.53125 0 L 0.53125 -0.3125 L 1.1875 -0.3125 C 1.414062 -0.3125 1.601562 -0.351562 1.75 -0.4375 C 1.90625 -0.53125 2.019531 -0.660156 2.09375 -0.828125 C 2.164062 -0.992188 2.203125 -1.191406 2.203125 -1.421875 C 2.203125 -1.640625 2.164062 -1.828125 2.09375 -1.984375 C 2.019531 -2.148438 1.910156 -2.273438 1.765625 -2.359375 C 1.617188 -2.453125 1.4375 -2.5 1.21875 -2.5 L 0.515625 -2.5 L 0.515625 -2.8125 L 1.234375 -2.8125 C 1.515625 -2.8125 1.75 -2.753906 1.9375 -2.640625 C 2.132812 -2.535156 2.285156 -2.378906 2.390625 -2.171875 C 2.492188 -1.960938 2.546875 -1.710938 2.546875 -1.421875 C 2.546875 -1.117188 2.492188 -0.863281 2.390625 -0.65625 C 2.285156 -0.445312 2.132812 -0.285156 1.9375 -0.171875 C 1.738281 -0.0546875 1.492188 0 1.203125 0 Z M 0.6875 -2.8125 L 0.6875 0 L 0.328125 0 L 0.328125 -2.8125 Z M 0.6875 -2.8125 "/></g></g></g><g fill="#374b73" fill-opacity="1"><g transform="translate(16.107207, 4.09688)"><g><path d="M 0.6875 -2.8125 L 0.6875 0 L 0.328125 0 L 0.328125 -2.8125 Z M 0.6875 -2.8125 "/></g></g></g><g fill="#374b73" fill-opacity="1"><g transform="translate(18.279364, 4.09688)"><g><path d="M 1.46875 0.046875 C 1.226562 0.046875 1.015625 -0.0078125 0.828125 -0.125 C 0.640625 -0.25 0.488281 -0.421875 0.375 -0.640625 C 0.269531 -0.859375 0.21875 -1.113281 0.21875 -1.40625 C 0.21875 -1.695312 0.269531 -1.953125 0.375 -2.171875 C 0.488281 -2.390625 0.640625 -2.554688 0.828125 -2.671875 C 1.015625 -2.796875 1.226562 -2.859375 1.46875 -2.859375 C 1.71875 -2.859375 1.9375 -2.796875 2.125 -2.671875 C 2.3125 -2.554688 2.457031 -2.390625 2.5625 -2.171875 C 2.675781 -1.953125 2.734375 -1.695312 2.734375 -1.40625 C 2.734375 -1.113281 2.675781 -0.859375 2.5625 -0.640625 C 2.457031 -0.421875 2.3125 -0.25 2.125 -0.125 C 1.9375 -0.0078125 1.71875 0.046875 1.46875 0.046875 Z M 1.46875 -0.296875 C 1.644531 -0.296875 1.800781 -0.335938 1.9375 -0.421875 C 2.070312 -0.503906 2.179688 -0.628906 2.265625 -0.796875 C 2.347656 -0.960938 2.390625 -1.164062 2.390625 -1.40625 C 2.390625 -1.644531 2.347656 -1.847656 2.265625 -2.015625 C 2.179688 -2.179688 2.070312 -2.304688 1.9375 -2.390625 C 1.800781 -2.484375 1.644531 -2.53125 1.46875 -2.53125 C 1.300781 -2.53125 1.148438 -2.484375 1.015625 -2.390625 C 0.878906 -2.304688 0.769531 -2.179688 0.6875 -2.015625 C 0.601562 -1.847656 0.5625 -1.644531 0.5625 -1.40625 C 0.5625 -1.164062 0.601562 -0.960938 0.6875 -0.796875 C 0.769531 -0.628906 0.878906 -0.503906 1.015625 -0.421875 C 1.148438 -0.335938 1.300781 -0.296875 1.46875 -0.296875 Z M 1.46875 -0.296875 "/></g></g></g></g></g><g mask="url(#c634a2baeb)"><g transform="matrix(1, 0, 0, 1, 85, 29)"><g clip-path="url(#56f1d6ab4e)"><g clip-path="url(#19e743d254)"><g transform="matrix(1, 0, 0, 1, -0.000000000000014211, -0.000000000000003553)"><g clip-path="url(#fae8f50114)"><g clip-path="url(#eff3f095ad)"><g fill="#374b73" fill-opacity="1"><g transform="translate(0.516332, 2.587391)"><g><path d="M 0.8125 0 L 0.359375 0 L 0.359375 -0.21875 L 0.796875 -0.21875 C 0.953125 -0.21875 1.082031 -0.242188 1.1875 -0.296875 C 1.289062 -0.359375 1.367188 -0.445312 1.421875 -0.5625 C 1.472656 -0.675781 1.5 -0.804688 1.5 -0.953125 C 1.5 -1.109375 1.472656 -1.238281 1.421875 -1.34375 C 1.367188 -1.457031 1.289062 -1.546875 1.1875 -1.609375 C 1.09375 -1.671875 0.972656 -1.703125 0.828125 -1.703125 L 0.34375 -1.703125 L 0.34375 -1.90625 L 0.84375 -1.90625 C 1.03125 -1.90625 1.1875 -1.867188 1.3125 -1.796875 C 1.445312 -1.722656 1.550781 -1.613281 1.625 -1.46875 C 1.695312 -1.320312 1.734375 -1.148438 1.734375 -0.953125 C 1.734375 -0.753906 1.695312 -0.582031 1.625 -0.4375 C 1.550781 -0.300781 1.445312 -0.191406 1.3125 -0.109375 C 1.175781 -0.0351562 1.007812 0 0.8125 0 Z M 0.46875 -1.90625 L 0.46875 0 L 0.21875 0 L 0.21875 -1.90625 Z M 0.46875 -1.90625 "/></g></g></g></g><g clip-path="url(#4b5aca6b48)"><g fill="#374b73" fill-opacity="1"><g transform="translate(2.408798, 2.587391)"><g><path d="M 0.21875 0 L 0.21875 -1.90625 L 1.40625 -1.90625 L 1.40625 -1.703125 L 0.46875 -1.703125 L 0.46875 -1.078125 L 1.34375 -1.078125 L 1.34375 -0.859375 L 0.46875 -0.859375 L 0.46875 -0.21875 L 1.40625 -0.21875 L 1.40625 0 Z M 0.21875 0 "/></g></g></g></g><g clip-path="url(#5e8b33fd91)"><g fill="#374b73" fill-opacity="1"><g transform="translate(3.990833, 2.587391)"><g><path d="M 0.84375 0.03125 C 0.695312 0.03125 0.570312 0.0078125 0.46875 -0.03125 C 0.363281 -0.0820312 0.28125 -0.148438 0.21875 -0.234375 C 0.164062 -0.316406 0.140625 -0.414062 0.140625 -0.53125 L 0.390625 -0.53125 C 0.390625 -0.445312 0.410156 -0.378906 0.453125 -0.328125 C 0.492188 -0.285156 0.546875 -0.25 0.609375 -0.21875 C 0.679688 -0.195312 0.757812 -0.1875 0.84375 -0.1875 C 0.925781 -0.1875 1 -0.195312 1.0625 -0.21875 C 1.132812 -0.25 1.191406 -0.289062 1.234375 -0.34375 C 1.273438 -0.394531 1.296875 -0.453125 1.296875 -0.515625 C 1.296875 -0.578125 1.28125 -0.628906 1.25 -0.671875 C 1.21875 -0.710938 1.171875 -0.742188 1.109375 -0.765625 C 1.054688 -0.796875 0.992188 -0.816406 0.921875 -0.828125 L 0.6875 -0.890625 C 0.519531 -0.941406 0.394531 -1.003906 0.3125 -1.078125 C 0.226562 -1.160156 0.1875 -1.265625 0.1875 -1.390625 C 0.1875 -1.503906 0.210938 -1.597656 0.265625 -1.671875 C 0.328125 -1.753906 0.40625 -1.816406 0.5 -1.859375 C 0.601562 -1.910156 0.71875 -1.9375 0.84375 -1.9375 C 0.96875 -1.9375 1.078125 -1.910156 1.171875 -1.859375 C 1.273438 -1.816406 1.351562 -1.753906 1.40625 -1.671875 C 1.46875 -1.597656 1.5 -1.507812 1.5 -1.40625 L 1.265625 -1.40625 C 1.253906 -1.507812 1.207031 -1.585938 1.125 -1.640625 C 1.050781 -1.691406 0.957031 -1.71875 0.84375 -1.71875 C 0.757812 -1.71875 0.6875 -1.703125 0.625 -1.671875 C 0.5625 -1.648438 0.507812 -1.613281 0.46875 -1.5625 C 0.4375 -1.519531 0.421875 -1.46875 0.421875 -1.40625 C 0.421875 -1.34375 0.4375 -1.289062 0.46875 -1.25 C 0.507812 -1.21875 0.554688 -1.1875 0.609375 -1.15625 C 0.671875 -1.132812 0.734375 -1.113281 0.796875 -1.09375 L 0.984375 -1.046875 C 1.046875 -1.035156 1.109375 -1.015625 1.171875 -0.984375 C 1.234375 -0.960938 1.289062 -0.929688 1.34375 -0.890625 C 1.40625 -0.847656 1.453125 -0.796875 1.484375 -0.734375 C 1.515625 -0.671875 1.53125 -0.597656 1.53125 -0.515625 C 1.53125 -0.410156 1.5 -0.316406 1.4375 -0.234375 C 1.382812 -0.148438 1.304688 -0.0820312 1.203125 -0.03125 C 1.109375 0.0078125 0.988281 0.03125 0.84375 0.03125 Z M 0.84375 0.03125 "/></g></g></g></g><g clip-path="url(#65aaa1798a)"><g fill="#374b73" fill-opacity="1"><g transform="translate(5.676773, 2.587391)"><g><path d="M 0.46875 -1.90625 L 0.46875 0 L 0.21875 0 L 0.21875 -1.90625 Z M 0.46875 -1.90625 "/></g></g></g></g><g clip-path="url(#630dbddfa6)"><g fill="#374b73" fill-opacity="1"><g transform="translate(6.377545, 2.587391)"><g><path d="M 1 0.03125 C 0.832031 0.03125 0.679688 -0.0078125 0.546875 -0.09375 C 0.421875 -0.175781 0.320312 -0.289062 0.25 -0.4375 C 0.175781 -0.582031 0.140625 -0.753906 0.140625 -0.953125 C 0.140625 -1.148438 0.175781 -1.320312 0.25 -1.46875 C 0.320312 -1.613281 0.421875 -1.726562 0.546875 -1.8125 C 0.679688 -1.894531 0.832031 -1.9375 1 -1.9375 C 1.09375 -1.9375 1.179688 -1.921875 1.265625 -1.890625 C 1.359375 -1.859375 1.441406 -1.8125 1.515625 -1.75 C 1.585938 -1.695312 1.644531 -1.632812 1.6875 -1.5625 C 1.726562 -1.488281 1.757812 -1.40625 1.78125 -1.3125 L 1.53125 -1.3125 C 1.507812 -1.375 1.484375 -1.425781 1.453125 -1.46875 C 1.421875 -1.519531 1.378906 -1.5625 1.328125 -1.59375 C 1.285156 -1.632812 1.234375 -1.664062 1.171875 -1.6875 C 1.117188 -1.707031 1.0625 -1.71875 1 -1.71875 C 0.882812 -1.71875 0.78125 -1.6875 0.6875 -1.625 C 0.59375 -1.5625 0.519531 -1.472656 0.46875 -1.359375 C 0.414062 -1.253906 0.390625 -1.117188 0.390625 -0.953125 C 0.390625 -0.796875 0.414062 -0.660156 0.46875 -0.546875 C 0.519531 -0.429688 0.59375 -0.34375 0.6875 -0.28125 C 0.78125 -0.226562 0.882812 -0.203125 1 -0.203125 C 1.113281 -0.203125 1.210938 -0.222656 1.296875 -0.265625 C 1.378906 -0.304688 1.441406 -0.367188 1.484375 -0.453125 C 1.535156 -0.546875 1.5625 -0.648438 1.5625 -0.765625 L 1.625 -0.75 L 1.0625 -0.75 L 1.0625 -0.953125 L 1.796875 -0.953125 L 1.796875 -0.75 C 1.796875 -0.59375 1.757812 -0.457031 1.6875 -0.34375 C 1.625 -0.226562 1.53125 -0.132812 1.40625 -0.0625 C 1.289062 0 1.15625 0.03125 1 0.03125 Z M 1 0.03125 "/></g></g></g></g><g clip-path="url(#7fbe2d3dfe)"><g fill="#374b73" fill-opacity="1"><g transform="translate(8.344412, 2.587391)"><g><path d="M 0.21875 0 L 0.21875 -1.90625 L 0.5 -1.90625 L 1.28125 -0.6875 C 1.300781 -0.65625 1.320312 -0.613281 1.34375 -0.5625 C 1.375 -0.519531 1.40625 -0.46875 1.4375 -0.40625 C 1.476562 -0.34375 1.515625 -0.28125 1.546875 -0.21875 L 1.515625 -0.203125 C 1.503906 -0.273438 1.5 -0.34375 1.5 -0.40625 C 1.5 -0.46875 1.492188 -0.523438 1.484375 -0.578125 C 1.484375 -0.640625 1.484375 -0.6875 1.484375 -0.71875 L 1.484375 -1.90625 L 1.734375 -1.90625 L 1.734375 0 L 1.453125 0 L 0.75 -1.09375 C 0.71875 -1.132812 0.6875 -1.179688 0.65625 -1.234375 C 0.625 -1.285156 0.585938 -1.347656 0.546875 -1.421875 C 0.503906 -1.492188 0.457031 -1.582031 0.40625 -1.6875 L 0.4375 -1.703125 C 0.445312 -1.609375 0.453125 -1.519531 0.453125 -1.4375 C 0.453125 -1.363281 0.453125 -1.296875 0.453125 -1.234375 C 0.460938 -1.171875 0.46875 -1.125 0.46875 -1.09375 L 0.46875 0 Z M 0.21875 0 "/></g></g></g></g><g clip-path="url(#8ebd46739a)"><g fill="#374b73" fill-opacity="1"><g transform="translate(10.313843, 2.587391)"><g><path d="M 0.21875 0 L 0.21875 -1.90625 L 1.40625 -1.90625 L 1.40625 -1.703125 L 0.46875 -1.703125 L 0.46875 -1.078125 L 1.34375 -1.078125 L 1.34375 -0.859375 L 0.46875 -0.859375 L 0.46875 -0.21875 L 1.40625 -0.21875 L 1.40625 0 Z M 0.21875 0 "/></g></g></g></g><g clip-path="url(#a74c391714)"><g fill="#374b73" fill-opacity="1"><g transform="translate(11.895879, 2.587391)"><g><path d="M 0.8125 0 L 0.359375 0 L 0.359375 -0.21875 L 0.796875 -0.21875 C 0.953125 -0.21875 1.082031 -0.242188 1.1875 -0.296875 C 1.289062 -0.359375 1.367188 -0.445312 1.421875 -0.5625 C 1.472656 -0.675781 1.5 -0.804688 1.5 -0.953125 C 1.5 -1.109375 1.472656 -1.238281 1.421875 -1.34375 C 1.367188 -1.457031 1.289062 -1.546875 1.1875 -1.609375 C 1.09375 -1.671875 0.972656 -1.703125 0.828125 -1.703125 L 0.34375 -1.703125 L 0.34375 -1.90625 L 0.84375 -1.90625 C 1.03125 -1.90625 1.1875 -1.867188 1.3125 -1.796875 C 1.445312 -1.722656 1.550781 -1.613281 1.625 -1.46875 C 1.695312 -1.320312 1.734375 -1.148438 1.734375 -0.953125 C 1.734375 -0.753906 1.695312 -0.582031 1.625 -0.4375 C 1.550781 -0.300781 1.445312 -0.191406 1.3125 -0.109375 C 1.175781 -0.0351562 1.007812 0 0.8125 0 Z M 0.46875 -1.90625 L 0.46875 0 L 0.21875 0 L 0.21875 -1.90625 Z M 0.46875 -1.90625 "/></g></g></g></g><g fill="#374b73" fill-opacity="1"><g transform="translate(13.788344, 2.587391)"><g/></g></g><g clip-path="url(#c3fccc0e05)"><g fill="#374b73" fill-opacity="1"><g transform="translate(14.525034, 2.587391)"><g><path d="M 0.734375 0.03125 C 0.609375 0.03125 0.5 0.0078125 0.40625 -0.03125 C 0.3125 -0.0820312 0.238281 -0.144531 0.1875 -0.21875 C 0.144531 -0.300781 0.125 -0.394531 0.125 -0.5 C 0.125 -0.582031 0.140625 -0.648438 0.171875 -0.703125 C 0.203125 -0.765625 0.25 -0.820312 0.3125 -0.875 C 0.375 -0.925781 0.441406 -0.984375 0.515625 -1.046875 L 0.8125 -1.265625 C 0.832031 -1.285156 0.851562 -1.304688 0.875 -1.328125 C 0.90625 -1.347656 0.929688 -1.375 0.953125 -1.40625 C 0.972656 -1.4375 0.984375 -1.472656 0.984375 -1.515625 C 0.984375 -1.578125 0.960938 -1.628906 0.921875 -1.671875 C 0.878906 -1.710938 0.820312 -1.734375 0.75 -1.734375 C 0.695312 -1.734375 0.648438 -1.722656 0.609375 -1.703125 C 0.578125 -1.679688 0.550781 -1.648438 0.53125 -1.609375 C 0.507812 -1.578125 0.5 -1.539062 0.5 -1.5 C 0.5 -1.445312 0.507812 -1.398438 0.53125 -1.359375 C 0.550781 -1.316406 0.582031 -1.269531 0.625 -1.21875 C 0.664062 -1.175781 0.710938 -1.125 0.765625 -1.0625 L 1.640625 0 L 1.359375 0 L 0.640625 -0.875 C 0.566406 -0.957031 0.5 -1.03125 0.4375 -1.09375 C 0.382812 -1.164062 0.34375 -1.234375 0.3125 -1.296875 C 0.289062 -1.359375 0.28125 -1.425781 0.28125 -1.5 C 0.28125 -1.582031 0.296875 -1.65625 0.328125 -1.71875 C 0.367188 -1.78125 0.425781 -1.828125 0.5 -1.859375 C 0.570312 -1.898438 0.65625 -1.921875 0.75 -1.921875 C 0.84375 -1.921875 0.921875 -1.898438 0.984375 -1.859375 C 1.054688 -1.828125 1.109375 -1.78125 1.140625 -1.71875 C 1.179688 -1.664062 1.203125 -1.597656 1.203125 -1.515625 C 1.203125 -1.460938 1.191406 -1.410156 1.171875 -1.359375 C 1.148438 -1.304688 1.117188 -1.257812 1.078125 -1.21875 C 1.046875 -1.175781 1.003906 -1.132812 0.953125 -1.09375 L 0.578125 -0.8125 C 0.492188 -0.757812 0.4375 -0.707031 0.40625 -0.65625 C 0.375 -0.601562 0.359375 -0.550781 0.359375 -0.5 C 0.359375 -0.4375 0.375 -0.378906 0.40625 -0.328125 C 0.4375 -0.273438 0.476562 -0.234375 0.53125 -0.203125 C 0.582031 -0.179688 0.644531 -0.171875 0.71875 -0.171875 C 0.789062 -0.171875 0.863281 -0.1875 0.9375 -0.21875 C 1.007812 -0.25 1.070312 -0.296875 1.125 -0.359375 C 1.175781 -0.421875 1.21875 -0.488281 1.25 -0.5625 C 1.289062 -0.644531 1.3125 -0.738281 1.3125 -0.84375 L 1.53125 -0.84375 C 1.53125 -0.726562 1.515625 -0.628906 1.484375 -0.546875 C 1.460938 -0.460938 1.429688 -0.394531 1.390625 -0.34375 C 1.347656 -0.300781 1.316406 -0.265625 1.296875 -0.234375 L 1.25 -0.171875 C 1.1875 -0.109375 1.109375 -0.0546875 1.015625 -0.015625 C 0.921875 0.015625 0.828125 0.03125 0.734375 0.03125 Z M 0.734375 0.03125 "/></g></g></g></g><g fill="#374b73" fill-opacity="1"><g transform="translate(16.212257, 2.587391)"><g/></g></g><g clip-path="url(#bd150160f2)"><g fill="#374b73" fill-opacity="1"><g transform="translate(16.948947, 2.587391)"><g><path d="M 0.21875 0 L 0.21875 -1.90625 L 0.5625 -1.90625 L 1.03125 -0.703125 C 1.039062 -0.671875 1.050781 -0.632812 1.0625 -0.59375 C 1.082031 -0.550781 1.097656 -0.503906 1.109375 -0.453125 C 1.128906 -0.410156 1.144531 -0.363281 1.15625 -0.3125 C 1.175781 -0.269531 1.191406 -0.226562 1.203125 -0.1875 L 1.140625 -0.1875 C 1.148438 -0.226562 1.160156 -0.269531 1.171875 -0.3125 C 1.191406 -0.351562 1.207031 -0.398438 1.21875 -0.453125 C 1.238281 -0.503906 1.253906 -0.550781 1.265625 -0.59375 C 1.285156 -0.632812 1.300781 -0.671875 1.3125 -0.703125 L 1.78125 -1.90625 L 2.125 -1.90625 L 2.125 0 L 1.890625 0 L 1.890625 -1.09375 C 1.890625 -1.132812 1.890625 -1.175781 1.890625 -1.21875 C 1.890625 -1.269531 1.890625 -1.320312 1.890625 -1.375 C 1.890625 -1.4375 1.890625 -1.492188 1.890625 -1.546875 C 1.890625 -1.609375 1.890625 -1.664062 1.890625 -1.71875 L 1.921875 -1.71875 C 1.898438 -1.65625 1.878906 -1.59375 1.859375 -1.53125 C 1.835938 -1.46875 1.816406 -1.410156 1.796875 -1.359375 C 1.785156 -1.304688 1.769531 -1.253906 1.75 -1.203125 C 1.726562 -1.160156 1.710938 -1.125 1.703125 -1.09375 L 1.28125 0 L 1.0625 0 L 0.625 -1.09375 C 0.613281 -1.125 0.597656 -1.160156 0.578125 -1.203125 C 0.566406 -1.242188 0.550781 -1.289062 0.53125 -1.34375 C 0.519531 -1.40625 0.503906 -1.46875 0.484375 -1.53125 C 0.460938 -1.59375 0.4375 -1.65625 0.40625 -1.71875 L 0.4375 -1.71875 C 0.4375 -1.664062 0.4375 -1.613281 0.4375 -1.5625 C 0.445312 -1.507812 0.453125 -1.453125 0.453125 -1.390625 C 0.453125 -1.335938 0.453125 -1.285156 0.453125 -1.234375 C 0.453125 -1.179688 0.453125 -1.132812 0.453125 -1.09375 L 0.453125 0 Z M 0.21875 0 "/></g></g></g></g><g clip-path="url(#9579e979f3)"><g fill="#374b73" fill-opacity="1"><g transform="translate(19.310906, 2.587391)"><g><path d="M 0.0625 0 L 0.75 -1.90625 L 1.03125 -1.90625 L 1.734375 0 L 1.484375 0 L 1.078125 -1.140625 C 1.046875 -1.210938 1.015625 -1.296875 0.984375 -1.390625 C 0.953125 -1.492188 0.910156 -1.628906 0.859375 -1.796875 L 0.921875 -1.796875 C 0.867188 -1.628906 0.828125 -1.492188 0.796875 -1.390625 C 0.765625 -1.285156 0.734375 -1.203125 0.703125 -1.140625 L 0.3125 0 Z M 0.40625 -0.53125 L 0.40625 -0.75 L 1.375 -0.75 L 1.375 -0.53125 Z M 0.40625 -0.53125 "/></g></g></g></g><g clip-path="url(#0b1273fc7d)"><g fill="#374b73" fill-opacity="1"><g transform="translate(21.117426, 2.587391)"><g><path d="M 0.8125 0 L 0.359375 0 L 0.359375 -0.21875 L 0.796875 -0.21875 C 0.953125 -0.21875 1.082031 -0.242188 1.1875 -0.296875 C 1.289062 -0.359375 1.367188 -0.445312 1.421875 -0.5625 C 1.472656 -0.675781 1.5 -0.804688 1.5 -0.953125 C 1.5 -1.109375 1.472656 -1.238281 1.421875 -1.34375 C 1.367188 -1.457031 1.289062 -1.546875 1.1875 -1.609375 C 1.09375 -1.671875 0.972656 -1.703125 0.828125 -1.703125 L 0.34375 -1.703125 L 0.34375 -1.90625 L 0.84375 -1.90625 C 1.03125 -1.90625 1.1875 -1.867188 1.3125 -1.796875 C 1.445312 -1.722656 1.550781 -1.613281 1.625 -1.46875 C 1.695312 -1.320312 1.734375 -1.148438 1.734375 -0.953125 C 1.734375 -0.753906 1.695312 -0.582031 1.625 -0.4375 C 1.550781 -0.300781 1.445312 -0.191406 1.3125 -0.109375 C 1.175781 -0.0351562 1.007812 0 0.8125 0 Z M 0.46875 -1.90625 L 0.46875 0 L 0.21875 0 L 0.21875 -1.90625 Z M 0.46875 -1.90625 "/></g></g></g></g><g clip-path="url(#dadfa828da)"><g fill="#374b73" fill-opacity="1"><g transform="translate(23.009892, 2.587391)"><g><path d="M 0.21875 0 L 0.21875 -1.90625 L 1.40625 -1.90625 L 1.40625 -1.703125 L 0.46875 -1.703125 L 0.46875 -1.078125 L 1.34375 -1.078125 L 1.34375 -0.859375 L 0.46875 -0.859375 L 0.46875 -0.21875 L 1.40625 -0.21875 L 1.40625 0 Z M 0.21875 0 "/></g></g></g></g><g fill="#374b73" fill-opacity="1"><g transform="translate(24.591927, 2.587391)"><g/></g></g><g clip-path="url(#98451eb9d3)"><g fill="#374b73" fill-opacity="1"><g transform="translate(25.328617, 2.587391)"><g><path d="M 0.21875 0 L 0.21875 -1.90625 L 0.90625 -1.90625 C 1.03125 -1.90625 1.132812 -1.882812 1.21875 -1.84375 C 1.3125 -1.800781 1.378906 -1.738281 1.421875 -1.65625 C 1.472656 -1.582031 1.5 -1.5 1.5 -1.40625 C 1.5 -1.320312 1.484375 -1.253906 1.453125 -1.203125 C 1.421875 -1.148438 1.378906 -1.109375 1.328125 -1.078125 C 1.285156 -1.046875 1.238281 -1.019531 1.1875 -1 L 1.1875 -0.984375 C 1.25 -0.984375 1.304688 -0.960938 1.359375 -0.921875 C 1.421875 -0.878906 1.46875 -0.820312 1.5 -0.75 C 1.539062 -0.6875 1.5625 -0.609375 1.5625 -0.515625 C 1.5625 -0.410156 1.539062 -0.320312 1.5 -0.25 C 1.457031 -0.175781 1.382812 -0.113281 1.28125 -0.0625 C 1.1875 -0.0195312 1.066406 0 0.921875 0 Z M 0.46875 -0.21875 L 0.921875 -0.21875 C 1.066406 -0.21875 1.171875 -0.242188 1.234375 -0.296875 C 1.296875 -0.359375 1.328125 -0.429688 1.328125 -0.515625 C 1.328125 -0.578125 1.3125 -0.632812 1.28125 -0.6875 C 1.25 -0.738281 1.203125 -0.78125 1.140625 -0.8125 C 1.085938 -0.84375 1.015625 -0.859375 0.921875 -0.859375 L 0.46875 -0.859375 Z M 0.46875 -1.078125 L 0.890625 -1.078125 C 0.960938 -1.078125 1.023438 -1.085938 1.078125 -1.109375 C 1.140625 -1.140625 1.1875 -1.175781 1.21875 -1.21875 C 1.25 -1.269531 1.265625 -1.328125 1.265625 -1.390625 C 1.265625 -1.484375 1.234375 -1.554688 1.171875 -1.609375 C 1.109375 -1.671875 1.019531 -1.703125 0.90625 -1.703125 L 0.46875 -1.703125 Z M 0.46875 -1.078125 "/></g></g></g></g><g clip-path="url(#b5b91e62dc)"><g fill="#374b73" fill-opacity="1"><g transform="translate(27.054322, 2.587391)"><g><path d="M 0.765625 0 L 0.765625 -0.78125 L 0.0625 -1.90625 L 0.328125 -1.90625 L 0.71875 -1.296875 C 0.757812 -1.222656 0.796875 -1.15625 0.828125 -1.09375 C 0.859375 -1.03125 0.894531 -0.957031 0.9375 -0.875 L 0.828125 -0.875 C 0.867188 -0.957031 0.90625 -1.03125 0.9375 -1.09375 C 0.96875 -1.164062 1.003906 -1.234375 1.046875 -1.296875 L 1.421875 -1.90625 L 1.703125 -1.90625 L 1 -0.78125 L 1 0 Z M 0.765625 0 "/></g></g></g></g><g fill="#374b73" fill-opacity="1"><g transform="translate(28.832621, 2.587391)"><g/></g></g><g clip-path="url(#1e95e1accd)"><g fill="#374b73" fill-opacity="1"><g transform="translate(29.569311, 2.587391)"><g><path d="M 0.21875 0 L 0.21875 -1.90625 L 0.46875 -1.90625 L 0.46875 -1.078125 L 1.46875 -1.078125 L 1.46875 -1.90625 L 1.703125 -1.90625 L 1.703125 0 L 1.46875 0 L 1.46875 -0.875 L 0.46875 -0.875 L 0.46875 0 Z M 0.21875 0 "/></g></g></g></g><g clip-path="url(#0cdbc71050)"><g fill="#374b73" fill-opacity="1"><g transform="translate(31.516936, 2.587391)"><g><path d="M 0.0625 0 L 0.75 -1.90625 L 1.03125 -1.90625 L 1.734375 0 L 1.484375 0 L 1.078125 -1.140625 C 1.046875 -1.210938 1.015625 -1.296875 0.984375 -1.390625 C 0.953125 -1.492188 0.910156 -1.628906 0.859375 -1.796875 L 0.921875 -1.796875 C 0.867188 -1.628906 0.828125 -1.492188 0.796875 -1.390625 C 0.765625 -1.285156 0.734375 -1.203125 0.703125 -1.140625 L 0.3125 0 Z M 0.40625 -0.53125 L 0.40625 -0.75 L 1.375 -0.75 L 1.375 -0.53125 Z M 0.40625 -0.53125 "/></g></g></g></g><g clip-path="url(#375533f7d9)"><g fill="#374b73" fill-opacity="1"><g transform="translate(33.323456, 2.587391)"><g><path d="M 0.21875 0 L 0.21875 -1.90625 L 0.5 -1.90625 L 1.28125 -0.6875 C 1.300781 -0.65625 1.320312 -0.613281 1.34375 -0.5625 C 1.375 -0.519531 1.40625 -0.46875 1.4375 -0.40625 C 1.476562 -0.34375 1.515625 -0.28125 1.546875 -0.21875 L 1.515625 -0.203125 C 1.503906 -0.273438 1.5 -0.34375 1.5 -0.40625 C 1.5 -0.46875 1.492188 -0.523438 1.484375 -0.578125 C 1.484375 -0.640625 1.484375 -0.6875 1.484375 -0.71875 L 1.484375 -1.90625 L 1.734375 -1.90625 L 1.734375 0 L 1.453125 0 L 0.75 -1.09375 C 0.71875 -1.132812 0.6875 -1.179688 0.65625 -1.234375 C 0.625 -1.285156 0.585938 -1.347656 0.546875 -1.421875 C 0.503906 -1.492188 0.457031 -1.582031 0.40625 -1.6875 L 0.4375 -1.703125 C 0.445312 -1.609375 0.453125 -1.519531 0.453125 -1.4375 C 0.453125 -1.363281 0.453125 -1.296875 0.453125 -1.234375 C 0.460938 -1.171875 0.46875 -1.125 0.46875 -1.09375 L 0.46875 0 Z M 0.21875 0 "/></g></g></g></g><g clip-path="url(#c443aecb01)"><g fill="#374b73" fill-opacity="1"><g transform="translate(35.292888, 2.587391)"><g><path d="M 0.8125 0 L 0.359375 0 L 0.359375 -0.21875 L 0.796875 -0.21875 C 0.953125 -0.21875 1.082031 -0.242188 1.1875 -0.296875 C 1.289062 -0.359375 1.367188 -0.445312 1.421875 -0.5625 C 1.472656 -0.675781 1.5 -0.804688 1.5 -0.953125 C 1.5 -1.109375 1.472656 -1.238281 1.421875 -1.34375 C 1.367188 -1.457031 1.289062 -1.546875 1.1875 -1.609375 C 1.09375 -1.671875 0.972656 -1.703125 0.828125 -1.703125 L 0.34375 -1.703125 L 0.34375 -1.90625 L 0.84375 -1.90625 C 1.03125 -1.90625 1.1875 -1.867188 1.3125 -1.796875 C 1.445312 -1.722656 1.550781 -1.613281 1.625 -1.46875 C 1.695312 -1.320312 1.734375 -1.148438 1.734375 -0.953125 C 1.734375 -0.753906 1.695312 -0.582031 1.625 -0.4375 C 1.550781 -0.300781 1.445312 -0.191406 1.3125 -0.109375 C 1.175781 -0.0351562 1.007812 0 0.8125 0 Z M 0.46875 -1.90625 L 0.46875 0 L 0.21875 0 L 0.21875 -1.90625 Z M 0.46875 -1.90625 "/></g></g></g></g></g></g></g></g></g></g></svg>